<svg aria-hidden="true" style="position: absolute; width: 0; height: 0; overflow: hidden;" version="1.1" xmlns="http://www.w3.org/2000/svg" xmlns:xlink="http://www.w3.org/1999/xlink">
<defs>
<symbol id="icon-phone" viewBox="0 0 32 32">
<path d="M6.5 3c-1.926 0-3.5 1.574-3.5 3.5v19c0 1.926 1.574 3.5 3.5 3.5h19c1.926 0 3.5-1.574 3.5-3.5v-19c0-1.926-1.574-3.5-3.5-3.5h-19zM6.5 4h19c1.384 0 2.5 1.116 2.5 2.5v19c0 1.384-1.116 2.5-2.5 2.5h-19c-1.384 0-2.5-1.116-2.5-2.5v-19c0-1.384 1.116-2.5 2.5-2.5zM10.401 5.506c-0.335 0.021-0.666 0.145-0.942 0.375-0.516 0.431-1.094 0.986-1.378 1.687-0.607 1.498-0.592 3.117 0.449 4.933 0.016 0.027 0.033 0.050 0.051 0.072l-0.001-0.001c2.258 4.637 6.172 8.554 10.805 10.822 0.033 0.034 0.070 0.064 0.111 0.088l0.002 0.001c1.816 1.041 3.434 1.057 4.933 0.45 0 0 0 0 0 0s0 0 0 0h-0c0.7-0.284 1.256-0.862 1.687-1.378 0.614-0.736 0.463-1.865-0.334-2.402-0 0-0 0-0 0s-0 0-0 0h0l-3.365-2.271c-0.583-0.393-1.361-0.359-1.907 0.083 0 0 0 0 0 0s0 0 0 0v-0l-1.227 0.993c-2.473-1.575-4.661-3.761-6.237-6.233l1.002-1.237c0.443-0.547 0.476-1.324 0.083-1.906l-2.271-3.366c-0.269-0.399-0.685-0.636-1.127-0.696-0.11-0.015-0.222-0.020-0.334-0.013zM10.469 6.497c0.043-0.003 0.086-0.002 0.129 0.004 0.17 0.023 0.33 0.117 0.436 0.273l2.271 3.365c0 0 0 0 0 0.001s0 0 0 0.001v-0c0.151 0.223 0.139 0.508-0.031 0.718l-1.238 1.529c-0.069 0.085-0.111 0.195-0.111 0.314 0 0.097 0.027 0.187 0.075 0.263l-0.001-0.002c1.734 2.83 4.219 5.315 7.050 7.047 0.074 0.046 0.164 0.073 0.261 0.073 0.12 0 0.229-0.042 0.316-0.112l-0.001 0.001 1.519-1.23c0.21-0.17 0.496-0.183 0.719-0.032l3.366 2.271c0.313 0.211 0.371 0.638 0.125 0.933-0.381 0.457-0.89 0.928-1.294 1.092-1.263 0.511-2.413 0.524-3.986-0.356-0-0-0.001-0.001-0.001-0.001v0c-0.033-0.029-0.070-0.054-0.11-0.074l-0.003-0.001c-4.515-2.171-8.364-6.020-10.533-10.535-0.013-0.026-0.026-0.047-0.040-0.068l0.001 0.002c-0.906-1.596-0.892-2.755-0.376-4.029 0.163-0.403 0.635-0.912 1.092-1.294 0.111-0.092 0.24-0.142 0.369-0.151zM7.705 14.802c-0.064 0.009-0.128 0.030-0.188 0.065l-0.858 0.514c-0.237 0.142-0.313 0.45-0.172 0.687 0.093 0.157 0.259 0.242 0.429 0.242 0.088 0 0.176-0.023 0.257-0.070l0.858-0.514c0.237-0.142 0.313-0.449 0.172-0.686-0.107-0.178-0.305-0.265-0.498-0.238zM9.266 16.916c-0.127-0.019-0.261 0.011-0.371 0.094l-0.802 0.597c-0.221 0.165-0.268 0.478-0.103 0.699 0.098 0.131 0.248 0.201 0.401 0.201 0.104 0 0.209-0.032 0.298-0.099l0.802-0.598c0.222-0.165 0.268-0.477 0.103-0.698-0.082-0.11-0.201-0.178-0.328-0.196zM10.834 18.88c-0.128-0.006-0.258 0.037-0.36 0.129l-0.739 0.673c-0.204 0.186-0.22 0.502-0.034 0.706 0.098 0.109 0.235 0.164 0.37 0.164 0.12 0 0.24-0.043 0.336-0.13l0.74-0.673c0.204-0.186 0.219-0.502 0.033-0.706-0.093-0.102-0.218-0.157-0.346-0.163zM12.59 20.681c-0.128 0.006-0.254 0.061-0.347 0.163l-0.672 0.74c-0.185 0.204-0.17 0.521 0.034 0.706 0.096 0.087 0.216 0.13 0.336 0.13 0.136 0 0.271-0.056 0.369-0.164l0.673-0.74c0.185-0.204 0.17-0.521-0.034-0.706-0.102-0.093-0.232-0.135-0.359-0.129zM14.508 22.306c-0.127 0.018-0.246 0.085-0.329 0.195l-0.598 0.802c-0.165 0.221-0.118 0.535 0.103 0.7 0.090 0.067 0.195 0.099 0.299 0.099 0.153 0 0.302-0.070 0.4-0.201l0.598-0.802c0.165-0.221 0.118-0.534-0.103-0.699-0.111-0.082-0.244-0.112-0.37-0.094zM16.764 23.722c-0.193-0.027-0.393 0.061-0.499 0.238l-0.513 0.857c-0.142 0.237-0.065 0.545 0.172 0.687 0.080 0.048 0.169 0.070 0.257 0.070 0.17 0 0.336-0.086 0.43-0.243l0.513-0.858c0.142-0.237 0.065-0.544-0.172-0.686-0.059-0.035-0.123-0.057-0.188-0.065z"></path>
</symbol>
<symbol id="icon-mail" viewBox="0 0 32 32">
<path d="M8.96 2.56c-3.527 0-6.4 2.873-6.4 6.4v14.080c0 3.527 2.873 6.4 6.4 6.4h14.080c3.527 0 6.4-2.873 6.4-6.4v-14.080c0-3.527-2.873-6.4-6.4-6.4h-14.080zM8.96 3.84h14.080c2.836 0 5.12 2.284 5.12 5.12v14.080c0 2.836-2.284 5.12-5.12 5.12h-14.080c-2.836 0-5.12-2.284-5.12-5.12v-14.080c0-2.836 2.284-5.12 5.12-5.12zM8.32 9.6c-1.053 0-1.92 0.867-1.92 1.92v8.96c0 1.053 0.867 1.92 1.92 1.92h15.36c1.053 0 1.92-0.867 1.92-1.92v-8.96c0-1.053-0.867-1.92-1.92-1.92h-15.36zM8.585 10.88h14.829l-5.7 5.691c-0.955 0.954-2.484 0.954-3.439-0.001l-5.69-5.69zM24.32 11.784v8.432l-4.223-4.216 4.223-4.216zM7.68 11.785l4.215 4.215-4.215 4.215v-8.43zM19.192 16.904l4.223 4.216h-14.83l4.215-4.215 0.57 0.57c1.444 1.444 3.803 1.445 5.248 0.003l0.575-0.574z"></path>
</symbol>
<symbol id="icon-linkenin" viewBox="0 0 32 32">
<path d="M26.24 2.56h-20.48c-1.766 0-3.2 1.434-3.2 3.2v20.48c0 1.766 1.434 3.2 3.2 3.2h20.48c1.766 0 3.2-1.434 3.2-3.2v-20.48c0-1.766-1.434-3.2-3.2-3.2zM10.88 12.8v12.16h-3.84v-12.16h3.84zM7.040 9.261c0-0.896 0.768-1.581 1.92-1.581s1.875 0.685 1.92 1.581c0 0.896-0.717 1.619-1.92 1.619-1.152 0-1.92-0.723-1.92-1.619zM24.96 24.96h-3.84c0 0 0-5.926 0-6.4 0-1.28-0.64-2.56-2.24-2.586h-0.051c-1.549 0-2.189 1.318-2.189 2.586 0 0.582 0 6.4 0 6.4h-3.84v-12.16h3.84v1.638c0 0 1.235-1.638 3.718-1.638 2.541 0 4.602 1.747 4.602 5.286v6.874z"></path>
</symbol>
<symbol id="icon-github" viewBox="0 0 32 32">
<path d="M16 4c-6.629 0-12 5.371-12 12 0 5.301 3.438 9.801 8.207 11.387 0.602 0.109 0.82-0.258 0.82-0.578 0-0.285-0.012-1.039-0.016-2.039-3.34 0.723-4.043-1.609-4.043-1.609-0.547-1.387-1.332-1.758-1.332-1.758-1.090-0.742 0.082-0.727 0.082-0.727 1.203 0.086 1.836 1.234 1.836 1.234 1.070 1.836 2.809 1.305 3.492 1 0.109-0.777 0.422-1.305 0.762-1.605-2.664-0.301-5.465-1.332-5.465-5.93 0-1.313 0.469-2.383 1.234-3.223-0.121-0.301-0.535-1.523 0.117-3.176 0 0 1.008-0.32 3.301 1.23 0.957-0.266 1.984-0.398 3.004-0.402 1.020 0.004 2.047 0.137 3.004 0.402 2.293-1.551 3.297-1.23 3.297-1.23 0.656 1.652 0.246 2.875 0.121 3.176 0.77 0.84 1.23 1.91 1.23 3.223 0 4.609-2.805 5.621-5.477 5.922 0.43 0.367 0.813 1.102 0.813 2.219 0 1.605-0.012 2.898-0.012 3.293 0 0.32 0.215 0.695 0.824 0.578 4.766-1.59 8.199-6.086 8.199-11.387 0-6.629-5.371-12-12-12z"></path>
</symbol>
</defs>
</svg>
